<svg xmlns="http://www.w3.org/2000/svg" width="332.3816833496094" height="256.96929931640625" viewBox="-159.90447998046875 -78.34520721435547 332.3816833496094 256.96929931640625"><title>Neo4j Graph Visualization</title><desc>Created using Neo4j (http://www.neo4j.com/)</desc><g class="layer relationships"><g class="relationship" transform="translate(-130.9044754916415 149.62408176791183) rotate(338.80548035593574)"><path class="b-outline" fill="#A5ABB6" stroke="none" d="M 24.018736134675446,-6.953439040707552 L 24.277555179777966,-5.987513214418485 A 178.56514505330452 178.56514505330452 0 0 1 45.70713691995175,-10.343310330552384 L 45.56832775546606,-11.333629479036745 A 179.56514505330452 179.56514505330452 0 0 0 24.018736134675446,-6.953439040707552 Z M 91.13159669316072,-11.882036553816874 L 91.01666357974403,-10.88866332111914 A 178.56514505330452 178.56514505330452 0 0 1 112.54487625002967,-7.04991335548406 L 111.83839020999523,-4.134286926183414 L 119.4657522584036,-5.887383666953776 L 113.48685763674229,-10.937415261218256 L 112.78037159670784,-8.02178883191761 A 179.56514505330452 179.56514505330452 0 0 0 91.13159669316072,-11.882036553816874"/><text text-anchor="middle" pointer-events="none" font-size="8px" fill="#000000" x="68.33851377384373" y="-9.559003874093918" font-family="Helvetica Neue, Helvetica, Arial, sans-serif">ACTED_IN</text></g><g class="relationship" transform="translate(-1.2973307548625839 -49.34520723145428) rotate(448.2733325789057)"><path class="b-outline" fill="#A5ABB6" stroke="none" d="M 24.018736134675446,-6.953439040707552 L 24.277555179777966,-5.987513214418485 A 185.0569120490558 185.0569120490558 0 0 1 47.34948772361594,-10.620596099916241 L 47.21534347335557,-11.611557915589316 A 186.0569120490558 186.0569120490558 0 0 0 24.018736134675446,-6.953439040707552 Z M 92.78277240038551,-12.148255453764051 L 92.67200541125578,-11.154409050078272 A 185.0569120490558 185.0569120490558 0 0 1 115.84666025198422,-7.066022896055664 L 115.13866964537876,-4.15076144963985 L 122.76693539472203,-5.899921721712213 L 116.79064772745816,-10.953038157943416 L 116.0826571208527,-8.037776711527602 A 186.0569120490558 186.0569120490558 0 0 0 92.78277240038551,-12.148255453764051"/><text text-anchor="middle" pointer-events="none" font-size="8px" fill="#000000" x="69.98845295505315" y="-9.78030536524463" font-family="Helvetica Neue, Helvetica, Arial, sans-serif">ACTED_IN</text></g><g class="relationship" transform="translate(108.17399920790855 -4.151727177563166) rotate(495.8973226178435)"><path class="b-outline" fill="#A5ABB6" stroke="none" d="M 24.018736134675446,-6.953439040707552 L 24.277555179777966,-5.987513214418485 A 183.513497881627 183.513497881627 0 0 1 46.95883528880715,-10.55501154737857 L 46.82361085865584,-11.545826541961418 A 184.513497881627 184.513497881627 0 0 0 24.018736134675446,-6.953439040707552 Z M 92.39010410281197,-12.085263795288455 L 92.27837373687899,-11.0915252354406 A 183.513497881627 183.513497881627 0 0 1 115.06142637739198,-7.062254732551787 L 114.3537877010197,-4.146907840035894 L 121.98184223932445,-5.896988969769091 L 116.00494461255504,-10.949383922572977 L 115.29730593618275,-8.034037030057084 A 184.513497881627 184.513497881627 0 0 0 92.39010410281197,-12.085263795288455"/><text text-anchor="middle" pointer-events="none" font-size="8px" fill="#000000" x="69.59605907941183" y="-9.727690701502809" transform="rotate(180 69.59605907941183 -12.727690701502809)" font-family="Helvetica Neue, Helvetica, Arial, sans-serif">ACTED_IN</text></g><g class="relationship" transform="translate(143.4772054989322 130.7510445715663) rotate(193.2715687113207)"><path class="b-outline" fill="#A5ABB6" stroke="none" d="M 25 0.5 L 52.33743015790567 0.5 L 52.33743015790567 -0.5 L 25 -0.5 Z M 84.85696140790567 0.5 L 112.19439156581134 0.5 L 112.19439156581134 3.5 L 119.19439156581134 0 L 112.19439156581134 -3.5 L 112.19439156581134 -0.5 L 84.85696140790567 -0.5 Z"/><text text-anchor="middle" pointer-events="none" font-size="8px" fill="#000000" x="68.59719578290567" y="3" transform="rotate(180 68.59719578290567 0)" font-family="Helvetica Neue, Helvetica, Arial, sans-serif">RATED</text></g><g class="relationship" transform="translate(3.13382679354202 97.64879974451614) rotate(222.20942887822736)"><path class="b-outline" fill="#A5ABB6" stroke="none" d="M 25 0.5 L 46.39245004833779 0.5 L 46.39245004833779 -0.5 L 25 -0.5 Z M 93.29088754833779 0.5 L 114.68333759667559 0.5 L 114.68333759667559 3.5 L 121.68333759667559 0 L 114.68333759667559 -3.5 L 114.68333759667559 -0.5 L 93.29088754833779 -0.5 Z"/><text text-anchor="middle" pointer-events="none" font-size="8px" fill="#000000" x="69.84166879833779" y="3" transform="rotate(180 69.84166879833779 0)" font-family="Helvetica Neue, Helvetica, Arial, sans-serif">IN_GENRE</text></g><g class="relationship" transform="translate(-130.9044754916415 149.62408176791183) rotate(338.80548035593574)"><path class="b-outline" fill="#A5ABB6" stroke="none" d="M 24.018736134675446,6.953439040707552 L 24.277555179777966,5.987513214418485 A 178.56514505330452 178.56514505330452 0 0 0 45.05151135462799,10.25017395706027 L 44.90903055778018,11.239971523499804 A 179.56514505330452 179.56514505330452 0 0 1 24.018736134675446,6.953439040707552 Z M 91.79295713353152,11.804274253024573 L 91.67434089753459,10.811334079319266 A 178.56514505330452 178.56514505330452 0 0 0 112.54487625002967,7.04991335548406 L 111.83839020999523,4.134286926183414 L 119.4657522584036,5.887383666953776 L 113.48685763674229,10.937415261218256 L 112.78037159670784,8.02178883191761 A 179.56514505330452 179.56514505330452 0 0 1 91.79295713353152,11.804274253024573"/><text text-anchor="middle" pointer-events="none" font-size="8px" fill="#000000" x="68.33851377384377" y="15.559003874093918" font-family="Helvetica Neue, Helvetica, Arial, sans-serif">DIRECTED</text></g><g class="relationship" transform="translate(108.17399920790855 -4.151727177563166) rotate(495.8973226178435)"><path class="b-outline" fill="#A5ABB6" stroke="none" d="M 24.018736134675446,6.953439040707552 L 24.277555179777966,5.987513214418485 A 183.513497881627 183.513497881627 0 0 0 46.30282303152755,10.464274273858791 L 46.164023865649156,11.45459482375739 A 184.513497881627 184.513497881627 0 0 1 24.018736134675446,6.953439040707552 Z M 93.05166602451771,12.00967244989016 L 92.93635021942012,11.016343569259618 A 183.513497881627 183.513497881627 0 0 0 115.06142637739198,7.062254732551787 L 114.3537877010197,4.146907840035894 L 121.98184223932445,5.896988969769091 L 116.00494461255504,10.949383922572977 L 115.29730593618275,8.034037030057084 A 184.513497881627 184.513497881627 0 0 1 93.05166602451771,12.00967244989016"/><text text-anchor="middle" pointer-events="none" font-size="8px" fill="#000000" x="69.59605907941184" y="15.727690701502809" transform="rotate(180 69.59605907941184 12.727690701502809)" font-family="Helvetica Neue, Helvetica, Arial, sans-serif">DIRECTED</text></g><g class="relationship" transform="translate(-1.2973307548625839 -49.34520723145428) rotate(448.2733325789057)"><path class="b-outline" fill="#A5ABB6" stroke="none" d="M 24.018736134675446,6.953439040707552 L 24.277555179777966,5.987513214418485 A 185.0569120490558 185.0569120490558 0 0 0 46.693360716271826,10.530581813774432 L 46.55567092426389,11.52105721537552 A 186.0569120490558 186.0569120490558 0 0 1 24.018736134675446,6.953439040707552 Z M 93.44439350676063,12.073317076656707 L 93.33007050297341,11.07987344423205 A 185.0569120490558 185.0569120490558 0 0 0 115.84666025198422,7.066022896055664 L 115.13866964537876,4.15076144963985 L 122.76693539472203,5.899921721712213 L 116.79064772745816,10.953038157943416 L 116.0826571208527,8.037776711527602 A 186.0569120490558 186.0569120490558 0 0 1 93.44439350676063,12.073317076656707"/><text text-anchor="middle" pointer-events="none" font-size="8px" fill="#000000" x="69.98845295505323" y="15.78030536524463" font-family="Helvetica Neue, Helvetica, Arial, sans-serif">DIRECTED</text></g></g><g class="layer nodes"><g class="node" aria-label="graph-node-7" transform="translate(3.13382679354202,97.64879974451614)"><circle class="b-outline" cx="0" cy="0" r="25" fill="#57C7E3" stroke="#23b3d7" stroke-width="2px"/><text class="caption" text-anchor="middle" pointer-events="none" x="0" y="5" font-size="10px" fill="#2A2C34" font-family="Helvetica Neue, Helvetica, Arial, sans-serif"> Movie</text></g><g class="node" aria-label="graph-node-9" transform="translate(143.4772054989322,130.7510445715663)"><circle class="b-outline" cx="0" cy="0" r="25" fill="#57C7E3" stroke="#23b3d7" stroke-width="2px"/><text class="caption" text-anchor="middle" pointer-events="none" x="0" y="5" font-size="10px" fill="#2A2C34" font-family="Helvetica Neue, Helvetica, Arial, sans-serif"> User</text></g><g class="node" aria-label="graph-node-10" transform="translate(108.17399920790855,-4.151727177563166)"><circle class="b-outline" cx="0" cy="0" r="25" fill="#A5ABB6" stroke="#9AA1AC" stroke-width="2px"/><text class="caption" text-anchor="middle" pointer-events="none" x="0" y="5" font-size="10px" fill="#FFFFFF" font-family="Helvetica Neue, Helvetica, Arial, sans-serif"> Actor</text></g><g class="node" aria-label="graph-node-11" transform="translate(-1.2973307548625839,-49.34520723145428)"><circle class="b-outline" cx="0" cy="0" r="25" fill="#A5ABB6" stroke="#9AA1AC" stroke-width="2px"/><text class="caption" text-anchor="middle" pointer-events="none" x="0" y="5" font-size="10px" fill="#FFFFFF" font-family="Helvetica Neue, Helvetica, Arial, sans-serif"> Director</text></g><g class="node" aria-label="graph-node-8" transform="translate(-105.51364780308562,-0.8992991325066275)"><circle class="b-outline" cx="0" cy="0" r="25" fill="#A5ABB6" stroke="#9AA1AC" stroke-width="2px"/><text class="caption" text-anchor="middle" pointer-events="none" x="0" y="5" font-size="10px" fill="#FFFFFF" font-family="Helvetica Neue, Helvetica, Arial, sans-serif"> Genre</text></g><g class="node" aria-label="graph-node-12" transform="translate(-130.9044754916415,149.62408176791183)"><circle class="b-outline" cx="0" cy="0" r="25" fill="#A5ABB6" stroke="#9AA1AC" stroke-width="2px"/><text class="caption" text-anchor="middle" pointer-events="none" x="0" y="5" font-size="10px" fill="#FFFFFF" font-family="Helvetica Neue, Helvetica, Arial, sans-serif"> Person</text></g></g></svg>